<svg xmlns="http://www.w3.org/2000/svg" version="1.1" viewBox="-5.0 -10.0 110.0 135.0">
 <g>
  <path d="m50 31.77c-2.0117 0-3.6445 1.6328-3.6445 3.6445 0 2.0156 1.6328 3.6484 3.6445 3.6484s3.6445-1.6328 3.6445-3.6445c0-2.0156-1.6328-3.6484-3.6445-3.6484z"/>
  <path d="m50 67.707c-1.7266 0-3.125-1.3984-3.125-3.125v-19.332c0-1.7266 1.3984-3.125 3.125-3.125s3.125 1.3984 3.125 3.125v19.332c0 1.7266-1.3984 3.125-3.125 3.125z"/>
  <path d="m50 82.293c-17.805 0-32.293-14.484-32.293-32.293 0-6.918 2.1562-13.516 6.2383-19.078 1.0117-1.3906 2.9648-1.6953 4.3672-0.67188 1.3906 1.0195 1.6914 2.9805 0.67188 4.3711-3.2891 4.4805-5.0273 9.8008-5.0273 15.379 0 14.359 11.684 26.043 26.043 26.043 6.9297 0 13.449-2.6914 18.359-7.5781 1.2266-1.2148 3.1992-1.2109 4.4219 0.011718 1.2148 1.2266 1.207 3.2031-0.011719 4.4219-6.0898 6.0586-14.176 9.3945-22.77 9.3945z"/>
  <path d="m76.094 66.164c-0.46875 0-0.94531-0.10547-1.3906-0.32812-1.5469-0.77344-2.1719-2.6484-1.3984-4.1914 0.52344-1.0508 0.98047-2.1367 1.3633-3.2578 0.55078-1.6367 2.3281-2.5117 3.9648-1.9531 1.6367 0.55469 2.5117 2.3281 1.9531 3.9648-0.46484 1.3711-1.0352 2.7344-1.6875 4.0391-0.55469 1.0938-1.6562 1.7266-2.8047 1.7266z"/>
  <path d="m79.168 53.125c-1.7266 0-3.125-1.3984-3.125-3.125 0-14.359-11.684-26.043-26.043-26.043-4.9805 0-9.8242 1.4102-14 4.0781-1.4609 0.93359-3.3906 0.5-4.3164-0.94922-0.92969-1.457-0.50391-3.3867 0.95312-4.3164 5.1797-3.3125 11.188-5.0625 17.363-5.0625 17.805 0 32.293 14.484 32.293 32.293 0 1.7266-1.4023 3.125-3.125 3.125z"/>
 </g>
<text x="0.0" y="117.5" font-size="5.0" font-weight="bold" font-family="Arbeit Regular, Helvetica, Arial-Unicode, Arial, Sans-serif" fill="#000000">Created by moon studio</text><text x="0.0" y="122.5" font-size="5.0" font-weight="bold" font-family="Arbeit Regular, Helvetica, Arial-Unicode, Arial, Sans-serif" fill="#000000">from Noun Project</text></svg>