<svg xmlns="http://www.w3.org/2000/svg" xmlns:xlink="http://www.w3.org/1999/xlink" version="1.1" x="0px" y="0px" viewBox="0 0 510 637.5" style="enable-background:new 0 0 510 510;" xml:space="preserve"><path d="M114.4,391.8l-21.6-21.6L33,430.1l21.6,21.6L114.4,391.8z M109.7,364.4l10.4,10.4l31.5-31.5l5.6,4.3  c22.3,17.3,49.5,25,76.3,23.3c56.3-3.6,101.3-48.4,105.3-104.7h-14.9c-4.1,50.9-46.7,90-97.7,90c-51,0-93.5-39.1-97.7-90h-14.9  c1.5,21.7,9.3,43,23.3,61l4.3,5.6L109.7,364.4z M131.5,386.2l5.6,5.6l-82.5,82.5l-44.2-44.2l82.5-82.5l5.6,5.6l21.7-21.7  c-13.5-19.6-21-42.2-22.5-65.1H71.5c-25.1,0-45.5-20.4-45.5-45.5v-91.3c0-25.1,20.4-45.5,45.5-45.5h68.7v16H71.5  C55.3,100,42,113.3,42,129.6v91.3c0,16.2,13.3,29.5,29.5,29.5h26.1c3.9-67.6,60.5-120.9,128.6-120.9c68.1,0,124.4,52.9,128.6,120.9  h94.4c12.6,0,23.9,5.1,32.2,13.4c8.2,8.2,13.4,19.6,13.4,32.1v91.3c0,25.1-20.4,45.5-45.5,45.5h-37v-16h37  c16.2,0,29.5-13.3,29.5-29.5v-91.3c0-16.2-13.3-29.5-29.5-29.5h-94.4c-4,64.8-55.6,116.4-120.3,120.6c-28.3,1.8-57.1-5.7-81.4-22.5  L131.5,386.2z M443.9,35.8c30.8,0,55.8,25,55.8,55.8s-25,55.7-55.8,55.7c-27.7,0-51-20.3-55.1-47.2h-106V84.1h105.9  C392.3,56.6,415.8,35.8,443.9,35.8L443.9,35.8z M472,63.4c-15.5-15.5-40.7-15.5-56.2,0c-15.5,15.5-15.5,40.7,0,56.2  c15.5,15.5,40.7,15.5,56.2,0C487.5,104.1,487.5,78.9,472,63.4L472,63.4z M293.3,380.4c21.5,0,39.7,15.4,43.5,36.2h50v16h-50  c-3.8,20.8-22,36.2-43.5,36.2c-24.4,0-44.2-19.8-44.2-44.2C249,400.2,268.9,380.4,293.3,380.4L293.3,380.4z M313.3,404.7  c-17.7-17.7-48.2-5.1-48.2,20c0,25.1,30.4,37.7,48.2,20C324.3,433.6,324.3,415.7,313.3,404.7L313.3,404.7z M226.2,202.6  c27.9,0,51.3,20.6,55.2,47.8h26.4c-4.1-42-39.4-74-81.6-74c-42.2,0-77.5,32-81.6,74h26.4C174.9,223.2,198.3,202.6,226.2,202.6  L226.2,202.6z M281.4,266.4c-3.9,27.2-27.3,47.7-55.2,47.7c-27.9,0-51.3-20.6-55.2-47.7h-26.4c4.1,42,39.4,74,81.6,74  c42.2,0,77.5-32,81.6-74H281.4z M254.3,230.2c-15.5-15.5-40.7-15.5-56.2,0c-15.5,15.5-15.5,40.7,0,56.2c15.5,15.5,40.7,15.5,56.2,0  C269.9,270.9,269.9,245.8,254.3,230.2L254.3,230.2z M323.9,250.4h14.9c-4.2-59-53.4-104.9-112.6-104.9  c-59.2,0-108.4,45.8-112.6,104.9h14.9c4.1-50.9,46.6-90,97.7-90C277.3,160.4,319.8,199.5,323.9,250.4L323.9,250.4z M185.7,100h-8  v-16h70.1v16H185.7z"/><text x="0" y="525" fill="#000000" font-size="5px" font-weight="bold" font-family="'Helvetica Neue', Helvetica, Arial-Unicode, Arial, Sans-serif">Created by WBcreative</text><text x="0" y="530" fill="#000000" font-size="5px" font-weight="bold" font-family="'Helvetica Neue', Helvetica, Arial-Unicode, Arial, Sans-serif">from the Noun Project</text></svg>