<svg xmlns="http://www.w3.org/2000/svg" xmlns:xlink="http://www.w3.org/1999/xlink" version="1.1" x="0px" y="0px" viewBox="0 0 510 637.5" style="enable-background:new 0 0 510 510;" xml:space="preserve"><path d="M188.8,102.7h-6.6v-16h57.7v16H188.8z M117.4,102.7h-5.1v-16h44.8v16H117.4z M106.6,394.4L85,372.8l-59.9,59.9l21.6,21.6  L106.6,394.4z M101.9,367.1l10.4,10.4l31.5-31.5l5.6,4.3c22.3,17.3,49.5,25,76.3,23.3C282,370.1,327,325.3,331,269h-14.9  c-4.1,50.9-46.7,90-97.7,90c-51,0-93.5-39.1-97.7-90h-14.9c1.5,21.7,9.3,43,23.2,61l4.3,5.6L101.9,367.1z M352.7,253h88.7  c12.5,0,23.9,5.1,32.2,13.4c8.2,8.2,13.4,19.6,13.4,32.1v91.3c0,25.1-20.4,45.5-45.5,45.5h-37v-16h37c16.2,0,29.5-13.3,29.5-29.5  v-91.3c0-16.2-13.3-29.5-29.5-29.5h-88.7V253z M82.7,269h-19c-25.1,0-45.5-20.4-45.5-45.5v-91.3c0-25.1,20.4-45.5,45.5-45.5h19v16  h-19c-16.2,0-29.5,13.3-29.5,29.5v91.3c0,16.2,13.3,29.5,29.5,29.5h19V269z M436.1,38.4c30.8,0,55.7,25,55.7,55.8  s-24.9,55.7-55.7,55.7c-27.7,0-51-20.3-55.1-47.2H275V86.8h105.8C384.5,59.3,408,38.4,436.1,38.4L436.1,38.4z M285.5,383.1  c21.5,0,39.7,15.4,43.5,36.2h49.9v16H329c-3.8,20.8-22,36.2-43.5,36.2c-24.4,0-44.2-19.8-44.2-44.2  C241.2,402.9,261.1,383.1,285.5,383.1L285.5,383.1z M218.4,205.3c27.9,0,51.3,20.6,55.2,47.8H300c-4.1-42-39.4-74-81.6-74  s-77.5,32-81.6,74h26.4C167.1,225.9,190.5,205.3,218.4,205.3L218.4,205.3z M273.6,269c-3.9,27.2-27.3,47.7-55.2,47.7  s-51.3-20.6-55.2-47.7h-26.4c4.1,42,39.4,74,81.6,74s77.5-32,81.6-74H273.6z M246.5,232.9c-15.5-15.5-40.7-15.5-56.2,0  c-15.5,15.5-15.5,40.7,0,56.2c15.5,15.5,40.7,15.5,56.2,0C262,273.6,262,248.5,246.5,232.9L246.5,232.9z M316.1,253H331  c-4.2-59-53.3-104.9-112.6-104.9S110,194,105.8,253h14.9c4.1-50.9,46.7-90,97.7-90C269.4,163,311.9,202.2,316.1,253L316.1,253z"/><text x="0" y="525" fill="#000000" font-size="5px" font-weight="bold" font-family="'Helvetica Neue', Helvetica, Arial-Unicode, Arial, Sans-serif">Created by WBcreative</text><text x="0" y="530" fill="#000000" font-size="5px" font-weight="bold" font-family="'Helvetica Neue', Helvetica, Arial-Unicode, Arial, Sans-serif">from the Noun Project</text></svg>