<svg xmlns="http://www.w3.org/2000/svg" version="1.1" viewBox="-5.0 -10.0 110.0 135.0">
 <path d="m26.73 87h46.531c7.0273 0 12.738-5.7109 12.738-12.73v-28.91c0-5.5781-2.9609-10.84-7.7383-13.738l-19.934-12.082c-5.1406-3.1094-11.52-3.1094-16.648 0l-19.941 12.082c-4.7773 2.8906-7.7383 8.1602-7.7383 13.738v28.91c0 7.0195 5.7109 12.73 12.73 12.73zm23.27-32c8.8203 0 16 7.1797 16 16 0 1.6602-1.3398 3-3 3s-3-1.3398-3-3c0-5.5117-4.4883-10-10-10s-10 4.4883-10 10c0 1.6602-1.3398 3-3 3s-3-1.3398-3-3c0-8.8203 7.1797-16 16-16z"/>
<text x="0.0" y="117.5" font-size="5.0" font-weight="bold" font-family="Arbeit Regular, Helvetica, Arial-Unicode, Arial, Sans-serif" fill="#000000">Created by Trident</text><text x="0.0" y="122.5" font-size="5.0" font-weight="bold" font-family="Arbeit Regular, Helvetica, Arial-Unicode, Arial, Sans-serif" fill="#000000">from Noun Project</text></svg>