<svg xmlns="http://www.w3.org/2000/svg" version="1.1" viewBox="-5.0 -10.0 110.0 135.0">
 <path d="m26.73 87h46.531c7.0273 0 12.738-5.7109 12.738-12.73v-28.91c0-5.5781-2.9609-10.84-7.7383-13.738l-19.934-12.082c-5.1406-3.1094-11.52-3.1094-16.648 0l-19.941 12.082c-4.7773 2.8906-7.7383 8.1602-7.7383 13.738v28.91c0 7.0195 5.7109 12.73 12.73 12.73zm-6.7305-41.641c0-3.5 1.8594-6.7891 4.8516-8.6094l19.941-12.078c1.6094-0.96875 3.4102-1.4609 5.2109-1.4609 1.8008 0 3.6094 0.48828 5.2188 1.4609l19.941 12.078c2.9883 1.8086 4.8516 5.1094 4.8516 8.6094v28.91c0 3.7109-3.0195 6.7305-6.7305 6.7305h-46.555c-3.7109 0-6.7305-3.0195-6.7305-6.7305z"/>
 <path d="m37 74c1.6602 0 3-1.3398 3-3 0-5.5117 4.4883-10 10-10s10 4.4883 10 10c0 1.6602 1.3398 3 3 3s3-1.3398 3-3c0-8.8203-7.1797-16-16-16s-16 7.1797-16 16c0 1.6602 1.3398 3 3 3z"/>
<text x="0.0" y="117.5" font-size="5.0" font-weight="bold" font-family="Arbeit Regular, Helvetica, Arial-Unicode, Arial, Sans-serif" fill="#000000">Created by Trident</text><text x="0.0" y="122.5" font-size="5.0" font-weight="bold" font-family="Arbeit Regular, Helvetica, Arial-Unicode, Arial, Sans-serif" fill="#000000">from Noun Project</text></svg>