<svg xmlns="http://www.w3.org/2000/svg" version="1.1" viewBox="-5.0 -10.0 110.0 135.0">
 <path d="m50 37c-7.1797 0-13 5.8203-13 13s5.8203 13 13 13 13-5.8203 13-13-5.8203-13-13-13zm-11 13c0-6.0742 4.9258-11 11-11s11 4.9258 11 11-4.9258 11-11 11-11-4.9258-11-11z" fill-rule="evenodd"/>
 <path d="m47.008 10c-3.8633 0-6.9883 3.1367-6.9883 7v3.6484c-3.8633 1.3203-7.3828 3.3828-10.387 6.0195l-3.1562-1.8281c-3.3438-1.9336-7.6172-0.78516-9.5469 2.5625l-2.9922 5.1953c-1.9297 3.3477-0.78516 7.6289 2.5547 9.5625l3.1562 1.8242c-0.38281 1.9492-0.58203 3.957-0.58203 6.0156s0.19922 4.0703 0.58203 6.0156l-3.1562 1.8242c-3.3398 1.9336-4.4844 6.2148-2.5547 9.5625l2.9922 5.1953c1.9297 3.3477 6.2031 4.4961 9.5469 2.5625l3.1562-1.8281c3.0039 2.6367 6.5234 4.6992 10.387 6.0195v3.6484c0 3.8633 3.125 7 6.9883 7h5.9844c3.8633 0 6.9883-3.1367 6.9883-7v-3.6484c3.8633-1.3203 7.3828-3.3828 10.387-6.0195l3.1562 1.8281c3.3438 1.9336 7.6172 0.78516 9.5469-2.5625l2.9922-5.1953c1.9297-3.3477 0.78516-7.6289-2.5547-9.5625l-3.1562-1.8242c0.38281-1.9453 0.58203-3.957 0.58203-6.0156s-0.19922-4.0664-0.58203-6.0156l3.1562-1.8242c3.3398-1.9336 4.4844-6.2148 2.5547-9.5625l-2.9922-5.1953c-1.9297-3.3477-6.2031-4.4961-9.5469-2.5625l-3.1562 1.8281c-3.0039-2.6367-6.5234-4.6992-10.387-6.0195v-3.6484c0-3.8633-3.125-7-6.9883-7zm-4.9883 7c0-2.7617 2.2344-5 4.9883-5h5.9844c2.7539 0 4.9883 2.2383 4.9883 5v4.375c0 0.43359 0.28125 0.82031 0.69922 0.95312 4.0938 1.2891 7.7969 3.4648 10.883 6.3047 0.32031 0.29688 0.80078 0.34766 1.1797 0.12891l3.7852-2.1914c2.3828-1.3789 5.4336-0.55859 6.8086 1.832l2.9961 5.1953c1.375 2.3945 0.55859 5.4531-1.8281 6.832l-3.7812 2.1875c-0.375 0.21875-0.56641 0.65625-0.47266 1.082 0.44531 2.0273 0.68359 4.1367 0.68359 6.3008s-0.23828 4.2734-0.68359 6.3008c-0.09375 0.42578 0.097656 0.86328 0.47266 1.082l3.7812 2.1875c2.3867 1.3828 3.2031 4.4414 1.8281 6.832l-2.9961 5.1953c-1.375 2.3945-4.4258 3.2109-6.8086 1.832l-3.7891-2.1914c-0.37891-0.21875-0.85547-0.16797-1.1758 0.12891-3.0859 2.8398-6.7891 5.0156-10.883 6.3047-0.41797 0.13281-0.69922 0.51953-0.69922 0.95312v4.375c0 2.7617-2.2344 5-4.9883 5h-5.9844c-2.7539 0-4.9883-2.2383-4.9883-5v-4.375c0-0.43359-0.28125-0.82031-0.69922-0.95312-4.0938-1.2891-7.7969-3.4648-10.883-6.3047-0.32031-0.29688-0.79688-0.34766-1.1758-0.12891l-3.7891 2.1914c-2.3828 1.3789-5.4336 0.5625-6.8086-1.832l-2.9961-5.1953c-1.375-2.3906-0.55859-5.4492 1.8281-6.832l3.7812-2.1875c0.375-0.21875 0.56641-0.65625 0.47266-1.082-0.44531-2.0273-0.68359-4.1367-0.68359-6.3008s0.23828-4.2734 0.68359-6.3008c0.09375-0.42578-0.097656-0.86328-0.47266-1.082l-3.7812-2.1875c-2.3867-1.3789-3.2031-4.4375-1.8281-6.832l2.9961-5.1953c1.375-2.3906 4.4258-3.2109 6.8086-1.832l3.7852 2.1914c0.37891 0.21875 0.85938 0.16797 1.1797-0.12891 3.0859-2.8398 6.7891-5.0156 10.883-6.3047 0.41797-0.13281 0.69922-0.51953 0.69922-0.95312z" fill-rule="evenodd"/>
<text x="0.0" y="117.5" font-size="5.0" font-weight="bold" font-family="Arbeit Regular, Helvetica, Arial-Unicode, Arial, Sans-serif" fill="#000000">Created by HideMaru</text><text x="0.0" y="122.5" font-size="5.0" font-weight="bold" font-family="Arbeit Regular, Helvetica, Arial-Unicode, Arial, Sans-serif" fill="#000000">from Noun Project</text></svg>