<svg xmlns="http://www.w3.org/2000/svg" version="1.1" viewBox="-5.0 -10.0 110.0 135.0">
 <path d="m40.02 17c0-3.8633 3.125-7 6.9883-7h5.9844c3.8633 0 6.9883 3.1367 6.9883 7v3.6484c3.8633 1.3203 7.3828 3.3828 10.387 6.0195l3.1562-1.8281c3.3438-1.9336 7.6172-0.78516 9.5469 2.5625l2.9922 5.1953c1.9297 3.3477 0.78516 7.6289-2.5547 9.5625l-3.1562 1.8242c0.38281 1.9492 0.58203 3.957 0.58203 6.0156s-0.19922 4.0703-0.58203 6.0156l3.1562 1.8242c3.3398 1.9336 4.4844 6.2148 2.5547 9.5625l-2.9922 5.1953c-1.9297 3.3477-6.2031 4.4961-9.5469 2.5625l-3.1562-1.8281c-3.0039 2.6367-6.5234 4.6992-10.387 6.0195v3.6484c0 3.8633-3.125 7-6.9883 7h-5.9844c-3.8633 0-6.9883-3.1367-6.9883-7v-3.6484c-3.8633-1.3203-7.3828-3.3828-10.387-6.0195l-3.1562 1.8281c-3.3438 1.9336-7.6172 0.78516-9.5469-2.5625l-2.9922-5.1953c-1.9297-3.3477-0.78516-7.6289 2.5547-9.5625l3.1562-1.8242c-0.38281-1.9453-0.58203-3.957-0.58203-6.0156s0.19922-4.0664 0.58203-6.0156l-3.1562-1.8242c-3.3398-1.9336-4.4844-6.2148-2.5547-9.5625l2.9922-5.1953c1.9297-3.3477 6.2031-4.4961 9.5469-2.5625l3.1562 1.8281c3.0039-2.6367 6.5234-4.6992 10.387-6.0195zm-3.0195 33c0-7.1797 5.8203-13 13-13s13 5.8203 13 13-5.8203 13-13 13-13-5.8203-13-13z" fill-rule="evenodd"/>
<text x="0.0" y="117.5" font-size="5.0" font-weight="bold" font-family="Arbeit Regular, Helvetica, Arial-Unicode, Arial, Sans-serif" fill="#000000">Created by HideMaru</text><text x="0.0" y="122.5" font-size="5.0" font-weight="bold" font-family="Arbeit Regular, Helvetica, Arial-Unicode, Arial, Sans-serif" fill="#000000">from Noun Project</text></svg>