<svg xmlns="http://www.w3.org/2000/svg" data-name="Layer 1" viewBox="0 0 95 118.75" x="0px" y="0px"><path d="M70.471,51.849A11.022,11.022,0,1,0,81.493,40.827,11.035,11.035,0,0,0,70.471,51.849ZM74.6,50.715a1.4,1.4,0,0,1,1.976,0l3.056,3.056L86.4,46.963a1.4,1.4,0,0,1,1.982,1.969l-7.754,7.8a1.4,1.4,0,0,1-.989.412h0a1.4,1.4,0,0,1-.988-.409L74.6,52.691A1.4,1.4,0,0,1,74.6,50.715Zm-56.1-39.961V21.2L2.485,21.188V10.742C2.485,5.37,6.079,1,10.5,1h0C14.826,1,18.419,5.374,18.508,10.754ZM41.477,75.742a1.4,1.4,0,0,1,1.4-1.4H80.1V65.594a13.805,13.805,0,0,1-9.215-4.909H39.446a1.4,1.4,0,1,1,0-2.794H69.071a13.769,13.769,0,0,1-1.063-9.038H39.446a1.4,1.4,0,0,1,0-2.794H68.953A13.847,13.847,0,0,1,80.1,38.1V12.428C80.1,6.127,75.863,1,70.66,1H17.253a11.77,11.77,0,0,1,.922.978A13.936,13.936,0,0,1,21.3,10.72V81.187C21.3,88.252,26.09,94,31.974,94c5.24,0,9.5-5.127,9.5-11.428Zm32.68-41.514a1.4,1.4,0,1,1,0,2.794H39.446a1.4,1.4,0,0,1,0-2.794ZM27.241,13.39H40.818a1.4,1.4,0,0,1,0,2.794H27.241a1.4,1.4,0,1,1,0-2.794Zm0,5.692H54.479a1.4,1.4,0,0,1,0,2.794H27.241a1.4,1.4,0,1,1,0-2.794Zm2.97,56.324A4.287,4.287,0,1,1,34.5,71.119,4.292,4.292,0,0,1,30.211,75.406Zm0-11.831A4.287,4.287,0,1,1,34.5,59.288,4.292,4.292,0,0,1,30.211,63.575Zm0-11.831A4.288,4.288,0,1,1,34.5,47.456,4.293,4.293,0,0,1,30.211,51.744Zm0-11.832A4.287,4.287,0,1,1,34.5,35.625,4.292,4.292,0,0,1,30.211,39.912Zm-2.97-12.345a1.4,1.4,0,0,1,0-2.794H62.809a1.4,1.4,0,1,1,0,2.794ZM38.049,71.119a1.4,1.4,0,0,1,1.4-1.4H74.157a1.4,1.4,0,1,1,0,2.794H39.446A1.4,1.4,0,0,1,38.049,71.119Zm6.222,6.02H92.232v5.433C92.232,88.873,88,94,82.8,94H39.284a15.028,15.028,0,0,0,4.987-11.428ZM31.7,35.625a1.493,1.493,0,1,1-1.493-1.493A1.5,1.5,0,0,1,31.7,35.625Zm0,11.831a1.493,1.493,0,1,1-1.493-1.493A1.5,1.5,0,0,1,31.7,47.456Zm0,11.832A1.493,1.493,0,1,1,30.211,57.8,1.5,1.5,0,0,1,31.7,59.288Zm0,11.831a1.493,1.493,0,1,1-1.493-1.493A1.5,1.5,0,0,1,31.7,71.119Z"/><text x="0" y="110" fill="#000000" font-size="5px" font-weight="bold" font-family="'Helvetica Neue', Helvetica, Arial-Unicode, Arial, Sans-serif">Created by Sunardi</text><text x="0" y="115" fill="#000000" font-size="5px" font-weight="bold" font-family="'Helvetica Neue', Helvetica, Arial-Unicode, Arial, Sans-serif">from the Noun Project</text></svg>