<svg xmlns="http://www.w3.org/2000/svg" data-name="Layer 1" viewBox="0 0 95 118.75" x="0px" y="0px"><path d="M91.015,72.823H80.884V64.569a13.033,13.033,0,0,0,0-25.933V14.416C80.884,7.019,75.709,1,69.347,1H12.594C6.973,1,2.4,6.305,2.4,12.825V24a1.317,1.317,0,0,0,1.317,1.318l16.433.012V79.277C20.151,87.4,25.85,94,32.854,94H80.8c6.361,0,11.537-6.019,11.537-13.416V74.141A1.318,1.318,0,0,0,91.015,72.823ZM89.963,51.6a10.4,10.4,0,1,1-10.4-10.4A10.41,10.41,0,0,1,89.963,51.6ZM5.037,22.679V12.825c0-5.067,3.39-9.189,7.557-9.189h0c4.084,0,7.473,4.126,7.557,9.2V22.69Zm17.75,56.6V12.805a13.151,13.151,0,0,0-2.95-8.247,10.916,10.916,0,0,0-.87-.922h50.38c4.908,0,8.9,4.836,8.9,10.78v24.22a13.06,13.06,0,0,0-10.511,7.5H39.9a1.318,1.318,0,0,0,0,2.636H66.845a12.99,12.99,0,0,0,1,8.525H39.9a1.318,1.318,0,1,0,0,2.635H69.556a13.025,13.025,0,0,0,8.692,4.632v8.254H43.136a1.318,1.318,0,0,0-1.317,1.318v6.443c0,5.944-4.022,10.78-8.965,10.78C27.3,91.364,22.787,85.942,22.787,79.277ZM89.7,80.584c0,5.944-3.993,10.78-8.9,10.78H39.75a14.175,14.175,0,0,0,4.7-10.78V75.459H89.7ZM27.071,16.641a1.317,1.317,0,0,1,1.318-1.317H41.2a1.318,1.318,0,0,1,0,2.635H28.389A1.318,1.318,0,0,1,27.071,16.641Zm0,5.369a1.318,1.318,0,0,1,1.318-1.317h25.7a1.318,1.318,0,1,1,0,2.635h-25.7A1.318,1.318,0,0,1,27.071,22.01Zm0,5.369a1.318,1.318,0,0,1,1.318-1.317H61.942a1.318,1.318,0,0,1,0,2.635H28.389A1.318,1.318,0,0,1,27.071,27.379ZM39.9,34.98H72.646a1.318,1.318,0,0,1,0,2.636H39.9a1.318,1.318,0,0,1,0-2.636Zm-8.711-2.726A4.044,4.044,0,1,0,35.235,36.3,4.048,4.048,0,0,0,31.191,32.254Zm0,5.453A1.409,1.409,0,1,1,32.6,36.3,1.41,1.41,0,0,1,31.191,37.707Zm0,5.708a4.044,4.044,0,1,0,4.044,4.044A4.048,4.048,0,0,0,31.191,43.415Zm0,5.452A1.409,1.409,0,1,1,32.6,47.459,1.409,1.409,0,0,1,31.191,48.867Zm0,5.708a4.045,4.045,0,1,0,4.044,4.045A4.049,4.049,0,0,0,31.191,54.575Zm0,5.453A1.409,1.409,0,1,1,32.6,58.62,1.409,1.409,0,0,1,31.191,60.028Zm7.393,9.752A1.318,1.318,0,0,1,39.9,68.462H72.646a1.318,1.318,0,1,1,0,2.636H39.9A1.318,1.318,0,0,1,38.584,69.78Zm-7.393-4.044a4.044,4.044,0,1,0,4.044,4.044A4.048,4.048,0,0,0,31.191,65.736Zm0,5.453A1.409,1.409,0,1,1,32.6,69.78,1.41,1.41,0,0,1,31.191,71.189ZM77.815,53.416,84.2,46.993a1.318,1.318,0,0,1,1.87,1.858l-7.315,7.36a1.313,1.313,0,0,1-.933.389h0a1.317,1.317,0,0,1-.931-.386L73.068,52.4a1.318,1.318,0,0,1,1.864-1.864Z"/><text x="0" y="110" fill="#000000" font-size="5px" font-weight="bold" font-family="'Helvetica Neue', Helvetica, Arial-Unicode, Arial, Sans-serif">Created by Sunardi</text><text x="0" y="115" fill="#000000" font-size="5px" font-weight="bold" font-family="'Helvetica Neue', Helvetica, Arial-Unicode, Arial, Sans-serif">from the Noun Project</text></svg>